[IMG]http://i.imgur.com/gCvYB.jpg[/IMG]
[code]
How To Stop Being A Loser 2011 DvDRiP 5.1 AC3 XViD-26K

Imdb: 
http://www.imdb.com/title/tt1727506/

Plot:
James is useless with women, but his luck changes under the tutelage of pick-up artist, Ampersand. As James learns the art of seduction he begins to wonder about Ampersand\'s intentions and questions what would truly make him happy in life.

Sources:
DVDR-THNXS BRO!!!

Notes:
Enjoy!!!

Greetz:
Xtreme Encode|FYA|ILLUMANTI|CM8|RX|VISION|HDSCENE|NIGHTMAREZ|xTriLL|DTRG|CRYS|REMIXHD|BIDA|RX|REFILL|INSPiRAL|SIC|ZOMBIESZ|HOPE|Anonymous|GooN
To all the people who have helped me :P you know who you are

Anything to offer email us @: 26k@hushmail.me

Video
ID                                       : 0
Format                                   : MPEG-4 Visual
Format profile                           : Advanced Simple@L5
Format settings, BVOP                    : 1
Format settings, QPel                    : No
Format settings, GMC                     : No warppoints
Format settings, Matrix                  : Default (H.263)
Codec ID                                 : XVID
Codec ID/Hint                            : XviD
Duration                                 : 1h 44mn
Bit rate                                 : 972 Kbps
Width                                    : 720 pixels
Height                                   : 304 pixels
Display aspect ratio                     : 2.35:1
Frame rate                               : 25.000 fps
Color space                              : YUV
Chroma subsampling                       : 4:2:0
Bit depth                                : 8 bits
Scan type                                : Progressive
Compression mode                         : Lossy
Bits/(Pixel*Frame)                       : 0.178
Stream size                              : 728 MiB (75%)
Writing library                          : XviD 1.2.1 (UTC 2008-12-04)

Audio
ID                                       : 1
Format                                   : AC-3
Format/Info                              : Audio Coding 3
Mode extension                           : CM (complete main)
Codec ID                                 : 2000
Duration                                 : 1h 44mn
Bit rate mode                            : Constant
Bit rate                                 : 320 Kbps
Channel(s)                               : 6 channels
Channel positions                        : Front: L C R, Side: L R, LFE
Sampling rate                            : 44.1 KHz
Bit depth                                : 16 bits
Compression mode                         : Lossy
Stream size                              : 240 MiB (25%)
Alignment                                : Aligned on interleaves
Interleave, duration                     : 70 ms (1.74 video frames)
Interleave, preload duration             : 208 ms
Title                                    : Title 01

[/code]
Screens:
[IMG]http://i.imgur.com/NFjIY.png[/IMG]
[IMG]http://i.imgur.com/uitJq.png[/IMG]
[IMG]http://i.imgur.com/akyfM.png[/IMG]
[IMG]http://i.imgur.com/8ywCM.png[/IMG]
[IMG]http://i.imgur.com/4FREH.png[/IMG]
[IMG]http://i.imgur.com/uyrU1.png[/IMG]
[IMG]http://i.imgur.com/TkWr3.png[/IMG]

[img]http://img851.imageshack.us/img851/5503/26ks.jpg[/img]
Thank you smallz for banner!